{"title":"Sket 2011 DvDRip.XviD.Ac3.Feel-Free","uid":7075030,"size":992921406,"categoryP":"video","categoryS":"movies","magnet":"?xt=urn:btih:59c1c3e57d2422576bf57b37921b44789730837a&amp;dn=Sket+2011+DvDRip.XviD.Ac3.Feel-Free&amp;tr=udp%3A%2F%2Ftracker.openbittorrent.com%3A80&amp;tr=udp%3A%2F%2Fopen.demonii.com%3A1337&amp;tr=udp%3A%2F%2Ftracker.coppersurfer.tk%3A6969&amp;tr=udp%3A%2F%2Fexodus.desync.com%3A6969","seeders":1,"leechers":0,"uploader":"never2ool","files":9,"time":1330805873,"description":"Genre:Crime\nLanguage:English\nIMDb:http://www.imdb.com/title/tt1658820/\nSource:DVDR Legend-rg Thanks!\nEncoder:Tony\n\nFormat : AVI\nFormat/Info : Audio Video Interleave\nFile size : 946 MiB\nDuration : 1h 19mn\nOverall bit rate : 1 654 Kbps\n\nVideo\nID : 0\nFormat : MPEG-4 Visual\nFormat profile : Advanced Simple@L5\nFormat settings, BVOP : 1\nFormat settings, QPel : No\nFormat settings, GMC : No warppoints\nFormat settings, Matrix : Default (H.263)\nCodec ID : XVID\nCodec ID/Hint : XviD\nDuration : 1h 19mn\nBit rate : 1 196 Kbps\nWidth : 640 pixels\nHeight : 272 pixels\nDisplay aspect ratio : 2.35:1\nFrame rate : 25.000 fps\nColor space : YUV\nChroma subsampling : 4:2:0\nBit depth : 8 bits\nScan type : Progressive\nCompression mode : Lossy\nBits/(Pixel*Frame) : 0.275\nStream size : 684 MiB (72%)\nWriting library : XviD 1.2.1 (UTC 2008-12-04)\n\nAudio\nID : 1\nFormat : AC-3\nFormat/Info : Audio Coding 3\nMode extension : CM (complete main)\nCodec ID : 2000\nDuration : 1h 19mn\nBit rate mode : Constant\nBit rate : 448 Kbps\nChannel(s) : 6 channels\nChannel positions : Front: L C R, Side: L R, LFE\nSampling rate : 48.0 KHz\nBit depth : 16 bits\nCompression mode : Lossy\nStream size : 256 MiB (27%)\nAlignment : Aligned on interleaves\nInterleave, duration : 40 ms (1.00 video frame)\nInterleave, preload duration : 512 ms\n\n\nPlot:\nWhen a young woman is cruelly and indiscriminately attacked by a notorious gang led by the violent Trey.","torrent":{"xt":"urn:btih:59c1c3e57d2422576bf57b37921b44789730837a","amp;dn":"Sket+2011+DvDRip.XviD.Ac3.Feel-Free","amp;tr":["udp%3A%2F%2Ftracker.openbittorrent.com%3A80","udp%3A%2F%2Fopen.demonii.com%3A1337","udp%3A%2F%2Ftracker.coppersurfer.tk%3A6969","udp%3A%2F%2Fexodus.desync.com%3A6969"],"infoHash":"59c1c3e57d2422576bf57b37921b44789730837a","infoHashBuffer":{"type":"Buffer","data":[89,193,195,229,125,36,34,87,107,245,123,55,146,27,68,120,151,48,131,122]},"announce":[],"urlList":[]}}